STARTFONT 2.1
FONT -FontForge-FreeSans-Bold-R-Normal-Sans-60-430-100-100-P-330-ISO10646-1
SIZE 43 100 100
FONTBOUNDINGBOX 58 59 -1 -13
COMMENT "Generated by fontforge, http://fontforge.sourceforge.net"
COMMENT "Copyleft 2002, 2003, 2005, 2008, 2009, 2010 Free Software Foundation."
STARTPROPERTIES 40
FOUNDRY "FontForge"
FAMILY_NAME "FreeSans"
WEIGHT_NAME "Bold"
SLANT "R"
SETWIDTH_NAME "Normal"
ADD_STYLE_NAME "Sans"
PIXEL_SIZE 60
POINT_SIZE 430
RESOLUTION_X 100
RESOLUTION_Y 100
SPACING "P"
AVERAGE_WIDTH 330
CHARSET_REGISTRY "ISO10646"
CHARSET_ENCODING "1"
FONTNAME_REGISTRY ""
CHARSET_COLLECTIONS "ISO8859-2 ISO8859-5 ISO8859-7 ISO8859-9 ISO8859-8 ISO8859-4 ISO10646-1"
FONT_NAME "FreeSansBold"
FACE_NAME "Free Sans Bold"
COPYRIGHT "Copyleft 2002, 2003, 2005, 2008, 2009, 2010 Free Software Foundation."
FONT_VERSION "$Revision: 1.199 $"
FONT_ASCENT 48
FONT_DESCENT 12
UNDERLINE_POSITION -13
UNDERLINE_THICKNESS 5
X_HEIGHT 31
CAP_HEIGHT 43
RAW_ASCENT 800
RAW_DESCENT 200
NORM_SPACE 17
RELATIVE_WEIGHT 70
RELATIVE_SETWIDTH 50
SUPERSCRIPT_X -9
SUPERSCRIPT_Y 28
SUPERSCRIPT_SIZE 41
SUBSCRIPT_X 2
SUBSCRIPT_Y 8
SUBSCRIPT_SIZE 41
FIGURE_WIDTH 33
AVG_LOWERCASE_WIDTH 323
AVG_UPPERCASE_WIDTH 412
ENDPROPERTIES
CHARS 96
STARTCHAR space
ENCODING 32
SWIDTH 278 0
DWIDTH 17 0
BBX 1 1 0 0
BITMAP
00
ENDCHAR
STARTCHAR exclam
ENCODING 33
SWIDTH 333 0
DWIDTH 20 0
BBX 9 44 7 0
BITMAP
FF80
FF80
FF80
FF80
FF80
FF80
FF80
FF80
FF80
FF80
FF80
FF80
FF80
FF80
FF80
FF00
FF00
FF00
FF00
7F00
7F00
7F00
7E00
7E00
7E00
7E00
7E00
3E00
3E00
3C00
3C00
3C00
0000
0000
0000
FF80
FF80
FF80
FF80
FF80
FF80
FF80
FF80
FF80
ENDCHAR
STARTCHAR quotedbl
ENCODING 34
SWIDTH 474 0
DWIDTH 28 0
BBX 22 16 3 28
BITMAP
FF03FC
FF03FC
FF03FC
FF03FC
FF03FC
FF03FC
FF03FC
FF03FC
FF03FC
FF01FC
7E01FC
7E01F8
7E00F8
3E00F8
3C00F0
3C00F0
ENDCHAR
STARTCHAR numbersign
ENCODING 35
SWIDTH 556 0
DWIDTH 33 0
BBX 33 44 0 -2
BITMAP
001F81FC00
001F81FC00
001F81F800
003F81F800
003F01F800
003F03F800
003F03F800
003F03F000
007F03F000
007F03F000
007E07F000
3FFFFFFF80
3FFFFFFF80
3FFFFFFF80
3FFFFFFF80
3FFFFFFF80
3FFFFFFF80
00FC0FC000
01FC0FC000
01FC0FC000
01F81FC000
01F81FC000
01F81F8000
03F81F8000
03F81F8000
03F01F8000
FFFFFFFE00
FFFFFFFE00
FFFFFFFE00
FFFFFFFE00
FFFFFFFE00
FFFFFFFE00
07E07E0000
0FE07E0000
0FE07E0000
0FC07E0000
0FC0FE0000
0FC0FC0000
1FC0FC0000
1FC0FC0000
1F80FC0000
1F81FC0000
1F81FC0000
3F81F80000
ENDCHAR
STARTCHAR dollar
ENCODING 36
SWIDTH 556 0
DWIDTH 33 0
BBX 31 54 1 -8
BITMAP
0003C000
0003C000
0003C000
0007C000
007FFE00
01FFFF80
07FFFFC0
0FFFFFE0
1FFFFFF0
1FFFFFF0
3FE3CFF8
3FC3C7F8
3F83C3FC
7F83C3FC
7F83C3FC
7F83C3FC
7F83C000
7F83C000
3FC3C000
3FE3C000
3FFFC000
1FFFC000
0FFFF800
0FFFFE00
03FFFF80
01FFFFC0
007FFFF0
000FFFF8
0003FFF8
0003DFFC
0003C7FC
0003C3FC
0003C3FE
0003C3FE
FF03C1FE
FF03C1FE
FF83C1FC
7F83C3FC
7FC3C3FC
7FE3C7FC
3FF3DFF8
3FFFFFF8
1FFFFFF0
0FFFFFE0
07FFFFC0
01FFFF00
003FFC00
0003C000
0003C000
0003C000
0003C000
0003C000
0003C000
0003C000
ENDCHAR
STARTCHAR percent
ENCODING 37
SWIDTH 889 0
DWIDTH 53 0
BBX 51 44 1 -1
BITMAP
000000001F0000
00FE00001E0000
03FF80003E0000
0FFFC0003C0000
1FFFF0007C0000
3FFFF000780000
3FFFF800F80000
7F83F800F00000
7F01FC01F00000
7E00FC03E00000
FC00FC03C00000
FC00FC07C00000
FC00FC07800000
FE00FC0F800000
7E00FC0F000000
7F01FC1F000000
7F87F81E000000
3FFFF83E000000
1FFFF03C000000
1FFFE07C000000
07FFC0F8000000
03FF80F8000000
007C01F00FE000
000001E03FFC00
000003E07FFE00
000003C0FFFF00
000007C1FFFF80
00000783FFFF80
00000F83F83FC0
00000F07F01FC0
00001F07E00FC0
00003E07E007E0
00003E07E007E0
00007C07E007E0
00007807E007E0
0000F807E00FC0
0000F007F01FC0
0001F003FC3FC0
0001E003FFFF80
0003E001FFFF00
0003C000FFFF00
0007C0007FFC00
000780003FF800
000F800007C000
ENDCHAR
STARTCHAR ampersand
ENCODING 38
SWIDTH 722 0
DWIDTH 43 0
BBX 38 44 3 -1
BITMAP
001FF80000
007FFE0000
00FFFF0000
01FFFF8000
03FFFFC000
03FFFFC000
07FE3FE000
07F81FE000
07F81FE000
07F80FE000
07F80FE000
07F81FE000
07FC1FC000
03FE3FC000
03FF7F8000
01FFFF8000
00FFFF0000
007FFC0000
007FF80000
007FF00000
01FFF80000
07FFF807E0
0FFFFC0FE0
1FFFFE0FE0
3FFBFF0FE0
3FE1FF8FE0
7FC0FF8FE0
7F807FDFC0
7F807FFFC0
FF003FFFC0
FF001FFF80
FF000FFF80
FF8007FF00
FF8007FE00
7FC007FF00
7FC00FFF80
7FF03FFF80
3FFFFFFFC0
3FFFFFFFE0
1FFFFFFFF0
0FFFFF9FF8
07FFFF0FF8
01FFFC07FC
007FF00000
ENDCHAR
STARTCHAR quotesingle
ENCODING 39
SWIDTH 238 0
DWIDTH 14 0
BBX 8 16 3 28
BITMAP
FF
FF
FF
FF
FF
FF
FF
FF
FF
FF
7E
7E
7E
3E
3C
3C
ENDCHAR
STARTCHAR parenleft
ENCODING 40
SWIDTH 333 0
DWIDTH 20 0
BBX 16 56 2 -12
BITMAP
003F
007F
007E
00FE
01FC
01FC
03F8
03F8
07F0
07F0
0FE0
0FE0
1FE0
1FC0
1FC0
3FC0
3F80
3F80
7F80
7F80
7F00
7F00
7F00
7F00
7F00
FF00
FF00
FF00
FF00
FF00
FF00
FF00
7F00
7F00
7F00
7F00
7F80
7F80
3F80
3F80
3FC0
1FC0
1FC0
1FC0
0FE0
0FE0
07F0
07F0
03F8
03F8
01F8
01FC
00FC
007E
007E
003F
ENDCHAR
STARTCHAR parenright
ENCODING 41
SWIDTH 333 0
DWIDTH 20 0
BBX 16 56 1 -12
BITMAP
FC00
7E00
7F00
3F00
3F80
1FC0
1FC0
0FE0
0FE0
07F0
07F0
07F8
03F8
03F8
01FC
01FC
01FC
01FE
00FE
00FE
00FE
00FF
00FF
00FF
007F
007F
007F
007F
007F
007F
007F
007F
007F
00FF
00FF
00FE
00FE
00FE
01FE
01FC
01FC
01FC
03F8
03F8
03F8
07F0
07F0
0FE0
0FE0
1FC0
1FC0
1F80
3F80
3F00
7E00
7E00
ENDCHAR
STARTCHAR asterisk
ENCODING 42
SWIDTH 389 0
DWIDTH 23 0
BBX 19 20 2 24
BITMAP
01F000
01F000
01F000
01F000
01F000
41F040
F9F3E0
FFFFE0
FFFFE0
FFFFE0
1FFF00
03F800
07FC00
0FFC00
0FBE00
1F3F00
3F1F80
1E0F00
0C0600
000400
ENDCHAR
STARTCHAR plus
ENCODING 43
SWIDTH 584 0
DWIDTH 35 0
BBX 29 29 3 -1
BITMAP
001FC000
001FC000
001FC000
001FC000
001FC000
001FC000
001FC000
001FC000
001FC000
001FC000
001FC000
FFFFFFF8
FFFFFFF8
FFFFFFF8
FFFFFFF8
FFFFFFF8
FFFFFFF8
FFFFFFF8
001FC000
001FC000
001FC000
001FC000
001FC000
001FC000
001FC000
001FC000
001FC000
001FC000
001FC000
ENDCHAR
STARTCHAR comma
ENCODING 44
SWIDTH 278 0
DWIDTH 17 0
BBX 9 19 4 -10
BITMAP
FF80
FF80
FF80
FF80
FF80
FF80
FF80
FF80
FF80
0780
0780
0780
0F00
0F00
1F00
3E00
FE00
F800
F000
ENDCHAR
STARTCHAR hyphen
ENCODING 45
SWIDTH 333 0
DWIDTH 20 0
BBX 16 9 2 12
BITMAP
FFFF
FFFF
FFFF
FFFF
FFFF
FFFF
FFFF
FFFF
FFFF
ENDCHAR
STARTCHAR period
ENCODING 46
SWIDTH 278 0
DWIDTH 17 0
BBX 9 9 4 0
BITMAP
FF80
FF80
FF80
FF80
FF80
FF80
FF80
FF80
FF80
ENDCHAR
STARTCHAR slash
ENCODING 47
SWIDTH 278 0
DWIDTH 17 0
BBX 16 44 0 -1
BITMAP
000F
000F
000F
000F
001E
001E
001E
003C
003C
003C
003C
0078
0078
0078
00F0
00F0
00F0
00F0
01E0
01E0
01E0
03C0
03C0
03C0
03C0
0780
0780
0780
0F00
0F00
0F00
0F00
1E00
1E00
1E00
3C00
3C00
3C00
3C00
7800
7800
7800
F800
F000
ENDCHAR
STARTCHAR zero
ENCODING 48
SWIDTH 556 0
DWIDTH 33 0
BBX 29 44 2 -1
BITMAP
007FF000
01FFFC00
03FFFE00
07FFFF00
0FFFFF80
1FFFFFC0
3FF8FFC0
3FE03FE0
7FC01FE0
7FC01FF0
7F801FF0
7F800FF0
FF800FF0
FF800FF0
FF000FF8
FF000FF8
FF000FF8
FF000FF8
FF000FF8
FF0007F8
FF0007F8
FF0007F8
FF0007F8
FF0007F8
FF0007F8
FF0007F8
FF000FF8
FF000FF8
FF000FF8
FF800FF8
FF800FF0
FF800FF0
7F800FF0
7F801FF0
7FC01FE0
3FC03FE0
3FF07FE0
3FFFFFC0
1FFFFFC0
0FFFFF80
0FFFFF00
03FFFE00
01FFFC00
007FF000
ENDCHAR
STARTCHAR one
ENCODING 49
SWIDTH 556 0
DWIDTH 33 0
BBX 19 43 4 0
BITMAP
0007E0
0007E0
000FE0
000FE0
001FE0
003FE0
00FFE0
07FFE0
FFFFE0
FFFFE0
FFFFE0
FFFFE0
FFFFE0
FFFFE0
003FE0
003FE0
003FE0
003FE0
003FE0
003FE0
003FE0
003FE0
003FE0
003FE0
003FE0
003FE0
003FE0
003FE0
003FE0
003FE0
003FE0
003FE0
003FE0
003FE0
003FE0
003FE0
003FE0
003FE0
003FE0
003FE0
003FE0
003FE0
003FE0
ENDCHAR
STARTCHAR two
ENCODING 50
SWIDTH 556 0
DWIDTH 33 0
BBX 29 43 2 0
BITMAP
00FFF000
03FFFE00
07FFFF00
0FFFFF80
1FFFFFC0
3FFFFFE0
3FFDFFE0
7FE03FF0
7FC01FF0
7F800FF0
7F800FF8
FF800FF8
FF800FF8
FF000FF8
FF000FF8
00000FF8
00000FF0
00000FF0
00001FF0
00003FE0
00007FE0
0000FFC0
0001FF80
0003FF00
000FFE00
001FFC00
003FF800
00FFE000
01FFC000
03FF8000
07FE0000
0FFC0000
1FF80000
3FF00000
3FE00000
7FE00000
7FFFFFF8
7FFFFFF8
FFFFFFF8
FFFFFFF8
FFFFFFF8
FFFFFFF8
FFFFFFF8
ENDCHAR
STARTCHAR three
ENCODING 51
SWIDTH 556 0
DWIDTH 33 0
BBX 29 44 2 -1
BITMAP
00FFF000
03FFFC00
0FFFFF00
1FFFFF80
1FFFFFC0
3FFFFFC0
7FF1FFE0
7FC07FE0
7F803FE0
7F801FE0
FF001FF0
FF001FF0
FF001FE0
FF001FE0
00001FE0
00003FE0
00003FC0
0000FF80
001FFF00
001FFE00
001FFE00
001FFF00
001FFF80
001FFFC0
0000FFE0
00003FF0
00001FF0
00000FF8
00000FF8
00000FF8
000007F8
FF000FF8
FF000FF8
FF000FF8
FF801FF8
FFC01FF0
7FE07FF0
7FFFFFE0
3FFFFFE0
1FFFFFC0
1FFFFF80
07FFFF00
03FFFC00
00FFF000
ENDCHAR
STARTCHAR four
ENCODING 52
SWIDTH 556 0
DWIDTH 33 0
BBX 30 43 1 0
BITMAP
0000FFC0
0001FFC0
0001FFC0
0003FFC0
0003FFC0
0007FFC0
000FFFC0
000FFFC0
001FFFC0
001FFFC0
003F7FC0
007F7FC0
007E7FC0
00FC7FC0
00FC7FC0
01F87FC0
03F87FC0
03F07FC0
07E07FC0
07E07FC0
0FC07FC0
1FC07FC0
1F807FC0
3F007FC0
3F007FC0
7E007FC0
FC007FC0
FFFFFFFC
FFFFFFFC
FFFFFFFC
FFFFFFFC
FFFFFFFC
FFFFFFFC
FFFFFFFC
00007FC0
00007FC0
00007FC0
00007FC0
00007FC0
00007FC0
00007FC0
00007FC0
00007FC0
ENDCHAR
STARTCHAR five
ENCODING 53
SWIDTH 556 0
DWIDTH 33 0
BBX 29 44 2 -1
BITMAP
07FFFFE0
0FFFFFE0
0FFFFFE0
0FFFFFE0
0FFFFFE0
0FFFFFE0
0FFFFFE0
1FFFFFE0
1FC00000
1FC00000
1F800000
1F800000
1F800000
1F800000
3F87C000
3FBFF800
3F7FFE00
3FFFFF00
3FFFFF80
3FFFFFC0
7FFFFFE0
7FE07FE0
7FC03FF0
7F801FF0
00000FF0
00000FF8
00000FF8
00000FF8
000007F8
000007F8
000007F8
00000FF8
FF000FF8
FF000FF0
FF801FF0
FF803FF0
FFC07FE0
7FFFFFE0
7FFFFFC0
3FFFFF80
1FFFFF00
0FFFFE00
03FFFC00
00FFE000
ENDCHAR
STARTCHAR six
ENCODING 54
SWIDTH 556 0
DWIDTH 33 0
BBX 29 44 2 -1
BITMAP
003FF800
00FFFE00
03FFFF80
07FFFF80
0FFFFFC0
0FFFFFE0
1FFE7FE0
1FF01FF0
3FE00FF0
3FC00FF0
7F800000
7F800000
7F800000
7F800000
FF800000
FF07F000
FF1FFE00
FF3FFF00
FF7FFF80
FFFFFFC0
FFFFFFE0
FFFFFFE0
FFF03FF0
FFC01FF0
FF800FF8
FF800FF8
FF8007F8
FF0007F8
FF0007F8
FF0007F8
FF0007F8
7F0007F8
7F8007F8
7F800FF8
7FC00FF0
3FC01FF0
3FF07FF0
1FFFFFE0
1FFFFFC0
0FFFFFC0
07FFFF80
03FFFF00
00FFFC00
003FF000
ENDCHAR
STARTCHAR seven
ENCODING 55
SWIDTH 556 0
DWIDTH 33 0
BBX 30 43 2 0
BITMAP
FFFFFFFC
FFFFFFFC
FFFFFFFC
FFFFFFFC
FFFFFFFC
FFFFFFFC
FFFFFFFC
FFFFFFF8
00000FF8
00000FF0
00001FE0
00003FC0
00007F80
00007F80
0000FF00
0001FE00
0001FE00
0003FC00
0007FC00
0007F800
000FF000
000FF000
001FE000
001FE000
003FE000
003FC000
003FC000
007F8000
007F8000
007F8000
00FF0000
00FF0000
00FF0000
00FF0000
01FE0000
01FE0000
01FE0000
01FE0000
01FE0000
03FE0000
03FE0000
03FE0000
03FC0000
ENDCHAR
STARTCHAR eight
ENCODING 56
SWIDTH 556 0
DWIDTH 33 0
BBX 30 44 1 -1
BITMAP
003FF800
01FFFE00
03FFFF80
07FFFFC0
0FFFFFE0
1FFFFFE0
1FFEFFF0
3FE00FF0
3FC007F8
3FC007F8
3F8003F8
3F8003F8
3F8003F8
3F8003F8
3FC007F8
1FC00FF0
1FF01FF0
0FFEFFE0
07FFFFC0
01FFFF00
03FFFF80
07FFFFC0
1FFFFFE0
1FF87FF0
3FE00FF8
7FC007F8
7FC007FC
7F8003FC
FF8003FC
FF8003FC
FF8003FC
FF8003FC
FF8003FC
7F8007FC
7FC007FC
7FE00FFC
7FF01FF8
3FFFFFF8
1FFFFFF0
1FFFFFE0
0FFFFFC0
03FFFF80
01FFFF00
007FF800
ENDCHAR
STARTCHAR nine
ENCODING 57
SWIDTH 556 0
DWIDTH 33 0
BBX 29 44 2 -1
BITMAP
007FE000
03FFF800
07FFFE00
0FFFFF00
1FFFFF80
3FFFFF80
3FF9FFC0
7FC07FC0
7F803FE0
FF801FE0
FF000FF0
FF000FF0
FF000FF0
FF000FF0
FF000FF8
FF000FF8
FF000FF8
FF000FF8
FF000FF8
FF801FF8
7FC03FF8
7FE07FF8
7FFFFFF8
3FFFFFF8
1FFFFFF8
1FFFF7F8
0FFFE7F8
03FFCFF8
00FF8FF0
00000FF0
00000FF0
00000FF0
00000FF0
FF001FE0
FF801FE0
7F803FE0
7FC07FC0
7FFFFFC0
3FFFFF80
3FFFFF00
1FFFFE00
0FFFFC00
03FFF800
00FFE000
ENDCHAR
STARTCHAR colon
ENCODING 58
SWIDTH 333 0
DWIDTH 20 0
BBX 9 31 7 0
BITMAP
FF80
FF80
FF80
FF80
FF80
FF80
FF80
FF80
FF80
0000
0000
0000
0000
0000
0000
0000
0000
0000
0000
0000
0000
0000
FF80
FF80
FF80
FF80
FF80
FF80
FF80
FF80
FF80
ENDCHAR
STARTCHAR semicolon
ENCODING 59
SWIDTH 333 0
DWIDTH 20 0
BBX 9 41 7 -10
BITMAP
FF80
FF80
FF80
FF80
FF80
FF80
FF80
FF80
FF80
0000
0000
0000
0000
0000
0000
0000
0000
0000
0000
0000
0000
0000
FF80
FF80
FF80
FF80
FF80
FF80
FF80
FF80
FF80
0780
0780
0780
0F00
0F00
1F00
3E00
FC00
F800
F000
ENDCHAR
STARTCHAR less
ENCODING 60
SWIDTH 584 0
DWIDTH 35 0
BBX 30 29 2 -1
BITMAP
0000001C
000000FC
000003FC
00001FFC
0000FFFC
0003FFFC
001FFFF8
00FFFFC0
03FFFE00
1FFFF000
FFFF8000
FFFC0000
FFE00000
FF800000
FF000000
FFE00000
FFFC0000
FFFF8000
1FFFF000
07FFFE00
00FFFFC0
001FFFF0
0007FFFC
0000FFFC
00001FFC
000007FC
000000FC
0000001C
00000004
ENDCHAR
STARTCHAR equal
ENCODING 61
SWIDTH 584 0
DWIDTH 35 0
BBX 29 22 3 3
BITMAP
FFFFFFF8
FFFFFFF8
FFFFFFF8
FFFFFFF8
FFFFFFF8
FFFFFFF8
FFFFFFF8
00000000
00000000
00000000
00000000
00000000
00000000
00000000
00000000
FFFFFFF8
FFFFFFF8
FFFFFFF8
FFFFFFF8
FFFFFFF8
FFFFFFF8
FFFFFFF8
ENDCHAR
STARTCHAR greater
ENCODING 62
SWIDTH 584 0
DWIDTH 35 0
BBX 30 29 2 -1
BITMAP
E0000000
FC000000
FF000000
FFE00000
FFFC0000
FFFF0000
7FFFE000
0FFFFC00
01FFFF00
003FFFE0
0007FFFC
0000FFFC
00001FFC
000003FC
000003FC
00001FFC
0000FFFC
0007FFFC
001FFFF0
00FFFF80
07FFFC00
3FFFF000
FFFF8000
FFFC0000
FFF00000
FF800000
FC000000
E0000000
80000000
ENDCHAR
STARTCHAR question
ENCODING 63
SWIDTH 611 0
DWIDTH 37 0
BBX 29 45 4 0
BITMAP
000F0000
00FFF800
03FFFE00
07FFFF00
0FFFFF80
1FFFFFC0
3FFFFFE0
3FFDFFF0
7FE03FF0
7FC01FF8
FF800FF8
FF800FF8
FF0007F8
FF0007F8
FF0007F8
FF0007F8
000007F8
00000FF8
00001FF8
00003FF0
00007FF0
0000FFE0
0001FFC0
0003FF80
0007FF00
000FFE00
000FF800
001FF000
001FE000
001FC000
001FC000
001FC000
001FC000
00000000
00000000
00000000
003FE000
003FE000
003FE000
003FE000
003FE000
003FE000
003FE000
003FE000
003FE000
ENDCHAR
STARTCHAR at
ENCODING 64
SWIDTH 975 0
DWIDTH 59 0
BBX 55 53 2 -8
BITMAP
0000007E000000
00000FFFF80000
00003FFFFF0000
0001FFFFFFC000
0003FFFFFFF000
000FFF003FFC00
001FF00007FE00
003FC00001FF00
007F0000007F80
00FE0000003FC0
01FC0000000FE0
03F800000007E0
07F000000003F0
07E000000003F0
0FC0007F0001F8
1F8003FFCFC0F8
1F8007FFEF80FC
3F000FFFEF807C
3F001FE3FF807C
7E003F80FF807C
7E007F007F007E
7E00FE007F007E
FC00FC007F007E
FC01F8003F007E
FC01F8003E007E
FC01F0003E007E
FC03F0007E007E
F803F0007C007C
F803E0007C00FC
F803E0007C00FC
F803E000FC00FC
FC07E000F801F8
FC03F001F803F8
FC03F003F807F0
FC03F007F80FF0
FE03F80FF81FE0
7E01FE3FFC7FC0
7E01FFFFFFFF80
7F00FFFE7FFF00
3F007FFC3FFC00
3F801FF01FF800
1FC00300018000
0FE00000000000
0FF00000000000
07FC0000000000
03FE0000000000
01FF8000010000
007FF0000F0000
003FFFC7FF0000
000FFFFFFF8000
0007FFFFFF8000
0000FFFFFE0000
00000FFFE00000
ENDCHAR
STARTCHAR A
ENCODING 65
SWIDTH 722 0
DWIDTH 43 0
BBX 40 44 2 0
BITMAP
0001FF8000
0001FF8000
0003FFC000
0003FFC000
0003FFE000
0007FFE000
0007FFE000
0007FFF000
000FFFF000
000FFFF000
001FFFF800
001FFFF800
001FE7F800
003FE7FC00
003FE7FC00
003FC3FC00
007FC3FE00
007FC3FE00
007F81FE00
00FF81FF00
00FF81FF00
00FF00FF00
01FF00FF80
01FF00FF80
03FE007F80
03FE007FC0
03FE007FC0
07FC003FC0
07FFFFFFE0
07FFFFFFE0
0FFFFFFFF0
0FFFFFFFF0
0FFFFFFFF0
1FFFFFFFF8
1FFFFFFFF8
1FF0000FF8
3FE0000FFC
3FE00007FC
7FE00007FC
7FC00007FE
7FC00003FE
FFC00003FE
FF800003FF
FF800001FF
ENDCHAR
STARTCHAR B
ENCODING 66
SWIDTH 722 0
DWIDTH 43 0
BBX 35 44 5 0
BITMAP
FFFFFC0000
FFFFFFC000
FFFFFFF000
FFFFFFFC00
FFFFFFFE00
FFFFFFFF00
FFFFFFFF00
FFFFFFFF80
FF8003FF80
FF8000FF80
FF80007FC0
FF80007FC0
FF80007FC0
FF80007FC0
FF80007F80
FF8000FF80
FF8001FF00
FF800FFF00
FFFFFFFE00
FFFFFFFC00
FFFFFFF000
FFFFFFF800
FFFFFFFC00
FFFFFFFE00
FFFFFFFF00
FF8003FF80
FF8000FFC0
FF80007FC0
FF80003FE0
FF80003FE0
FF80003FE0
FF80003FE0
FF80003FE0
FF80003FE0
FF80007FE0
FF8000FFC0
FF800FFFC0
FFFFFFFF80
FFFFFFFF80
FFFFFFFF00
FFFFFFFE00
FFFFFFFC00
FFFFFFF000
FFFFFF8000
ENDCHAR
STARTCHAR C
ENCODING 67
SWIDTH 722 0
DWIDTH 43 0
BBX 38 45 3 -1
BITMAP
0007FFC000
003FFFF800
007FFFFE00
01FFFFFF00
03FFFFFF80
07FFFFFFC0
0FFFFFFFE0
0FFFC1FFF0
1FFE007FF0
3FF8003FF8
3FF0001FF8
3FF0000FF8
7FE00007FC
7FC00007FC
7FC00007FC
FFC0000000
FF80000000
FF80000000
FF80000000
FF80000000
FF80000000
FF80000000
FF80000000
FF80000000
FF80000000
FF80000000
FF80000000
FF80000000
FF80000000
FF800007FC
7FC00007FC
7FC00007FC
7FE0000FFC
3FE0000FF8
3FF0001FF8
3FF8003FF8
1FFC007FF0
0FFF83FFF0
0FFFFFFFE0
07FFFFFFC0
03FFFFFF80
01FFFFFF00
007FFFFE00
003FFFF800
0007FFC000
ENDCHAR
STARTCHAR D
ENCODING 68
SWIDTH 722 0
DWIDTH 43 0
BBX 36 44 5 0
BITMAP
FFFFF00000
FFFFFF8000
FFFFFFE000
FFFFFFF800
FFFFFFFC00
FFFFFFFE00
FFFFFFFE00
FFFFFFFF00
FF8007FF80
FF8001FF80
FF8000FFC0
FF8000FFC0
FF80007FC0
FF80007FE0
FF80003FE0
FF80003FE0
FF80003FE0
FF80003FF0
FF80001FF0
FF80001FF0
FF80001FF0
FF80001FF0
FF80001FF0
FF80001FF0
FF80001FF0
FF80001FF0
FF80001FF0
FF80003FE0
FF80003FE0
FF80003FE0
FF80003FE0
FF80007FC0
FF80007FC0
FF8000FFC0
FF8001FF80
FF8007FF80
FF807FFF00
FFFFFFFF00
FFFFFFFE00
FFFFFFFC00
FFFFFFF800
FFFFFFF000
FFFFFFC000
FFFFFC0000
ENDCHAR
STARTCHAR E
ENCODING 69
SWIDTH 667 0
DWIDTH 40 0
BBX 32 44 5 0
BITMAP
FFFFFFFE
FFFFFFFE
FFFFFFFE
FFFFFFFE
FFFFFFFE
FFFFFFFE
FFFFFFFE
FFFFFFFE
FF800000
FF800000
FF800000
FF800000
FF800000
FF800000
FF800000
FF800000
FF800000
FF800000
FFFFFFFC
FFFFFFFC
FFFFFFFC
FFFFFFFC
FFFFFFFC
FFFFFFFC
FFFFFFFC
FF800000
FF800000
FF800000
FF800000
FF800000
FF800000
FF800000
FF800000
FF800000
FF800000
FF800000
FF800000
FFFFFFFF
FFFFFFFF
FFFFFFFF
FFFFFFFF
FFFFFFFF
FFFFFFFF
FFFFFFFF
ENDCHAR
STARTCHAR F
ENCODING 70
SWIDTH 611 0
DWIDTH 37 0
BBX 31 44 4 0
BITMAP
FFFFFFFE
FFFFFFFE
FFFFFFFE
FFFFFFFE
FFFFFFFE
FFFFFFFE
FFFFFFFE
FFFFFFFE
FF800000
FF800000
FF800000
FF800000
FF800000
FF800000
FF800000
FF800000
FF800000
FF800000
FFFFFFF8
FFFFFFF8
FFFFFFF8
FFFFFFF8
FFFFFFF8
FFFFFFF8
FFFFFFF8
FF800000
FF800000
FF800000
FF800000
FF800000
FF800000
FF800000
FF800000
FF800000
FF800000
FF800000
FF800000
FF800000
FF800000
FF800000
FF800000
FF800000
FF800000
FF800000
ENDCHAR
STARTCHAR G
ENCODING 71
SWIDTH 778 0
DWIDTH 47 0
BBX 40 46 3 -1
BITMAP
00000E0000
0003FFF000
001FFFFE00
007FFFFF00
00FFFFFFC0
01FFFFFFE0
03FFFFFFF0
07FFFFFFF8
0FFFC0FFF8
1FFE001FFC
1FF8000FFC
3FF00007FE
3FF00003FE
7FE00003FE
7FC00001FF
7FC0000000
FF80000000
FF80000000
FF80000000
FF80000000
FF80000000
FF8003FFFF
FF8003FFFF
FF8003FFFF
FF8003FFFF
FF8003FFFF
FF8003FFFF
FF8003FFFF
FF8003FFFF
FF800000FF
FFC00000FF
7FC00000FF
7FE00001FF
7FE00001FF
3FF00003FF
3FF80007FF
1FFC000FFF
0FFF003FFF
0FFFF3FFFF
07FFFFFFFF
03FFFFFF7F
01FFFFFE3F
00FFFFFC3F
003FFFF83F
000FFFF03F
0003FF8000
ENDCHAR
STARTCHAR H
ENCODING 72
SWIDTH 722 0
DWIDTH 43 0
BBX 35 44 4 0
BITMAP
FF80003FE0
FF80003FE0
FF80003FE0
FF80003FE0
FF80003FE0
FF80003FE0
FF80003FE0
FF80003FE0
FF80003FE0
FF80003FE0
FF80003FE0
FF80003FE0
FF80003FE0
FF80003FE0
FF80003FE0
FF80003FE0
FF80003FE0
FFFFFFFFE0
FFFFFFFFE0
FFFFFFFFE0
FFFFFFFFE0
FFFFFFFFE0
FFFFFFFFE0
FFFFFFFFE0
FF80003FE0
FF80003FE0
FF80003FE0
FF80003FE0
FF80003FE0
FF80003FE0
FF80003FE0
FF80003FE0
FF80003FE0
FF80003FE0
FF80003FE0
FF80003FE0
FF80003FE0
FF80003FE0
FF80003FE0
FF80003FE0
FF80003FE0
FF80003FE0
FF80003FE0
FF80003FE0
ENDCHAR
STARTCHAR I
ENCODING 73
SWIDTH 278 0
DWIDTH 17 0
BBX 9 44 4 0
BITMAP
FF80
FF80
FF80
FF80
FF80
FF80
FF80
FF80
FF80
FF80
FF80
FF80
FF80
FF80
FF80
FF80
FF80
FF80
FF80
FF80
FF80
FF80
FF80
FF80
FF80
FF80
FF80
FF80
FF80
FF80
FF80
FF80
FF80
FF80
FF80
FF80
FF80
FF80
FF80
FF80
FF80
FF80
FF80
FF80
ENDCHAR
STARTCHAR J
ENCODING 74
SWIDTH 556 0
DWIDTH 33 0
BBX 28 45 1 -1
BITMAP
00001FF0
00001FF0
00001FF0
00001FF0
00001FF0
00001FF0
00001FF0
00001FF0
00001FF0
00001FF0
00001FF0
00001FF0
00001FF0
00001FF0
00001FF0
00001FF0
00001FF0
00001FF0
00001FF0
00001FF0
00001FF0
00001FF0
00001FF0
00001FF0
00001FF0
00001FF0
00001FF0
00001FF0
FF801FF0
FF801FF0
FF801FF0
FF801FF0
FF801FF0
FFC01FF0
7FC01FF0
7FC01FF0
7FE03FF0
7FF8FFE0
3FFFFFE0
3FFFFFE0
1FFFFFC0
0FFFFF80
07FFFF00
03FFFE00
00FFF000
ENDCHAR
STARTCHAR K
ENCODING 75
SWIDTH 722 0
DWIDTH 43 0
BBX 39 44 4 0
BITMAP
FF80003FF8
FF80007FF0
FF80007FE0
FF8000FFC0
FF8001FF80
FF8003FF00
FF8007FE00
FF800FFC00
FF801FFC00
FF803FF800
FF807FF000
FF807FE000
FF80FFC000
FF81FF8000
FF83FF0000
FF87FE0000
FF8FFC0000
FF9FF80000
FFBFF00000
FFFFF00000
FFFFF80000
FFFFFC0000
FFFFFC0000
FFFFFE0000
FFFFFF0000
FFF9FF8000
FFF1FF8000
FFE0FFC000
FFC07FE000
FF807FF000
FF803FF800
FF801FF800
FF800FFC00
FF800FFE00
FF8007FF00
FF8003FF00
FF8001FF80
FF8001FFC0
FF8000FFE0
FF80007FF0
FF80003FF0
FF80003FF8
FF80001FFC
FF80000FFE
ENDCHAR
STARTCHAR L
ENCODING 76
SWIDTH 611 0
DWIDTH 37 0
BBX 30 44 5 0
BITMAP
FF800000
FF800000
FF800000
FF800000
FF800000
FF800000
FF800000
FF800000
FF800000
FF800000
FF800000
FF800000
FF800000
FF800000
FF800000
FF800000
FF800000
FF800000
FF800000
FF800000
FF800000
FF800000
FF800000
FF800000
FF800000
FF800000
FF800000
FF800000
FF800000
FF800000
FF800000
FF800000
FF800000
FF800000
FF800000
FF800000
FF800000
FFFFFFFC
FFFFFFFC
FFFFFFFC
FFFFFFFC
FFFFFFFC
FFFFFFFC
FFFFFFFC
ENDCHAR
STARTCHAR M
ENCODING 77
SWIDTH 833 0
DWIDTH 50 0
BBX 43 44 4 0
BITMAP
FFF80007FFE0
FFFC0007FFE0
FFFC000FFFE0
FFFC000FFFE0
FFFC000FFFE0
FFFE000FFFE0
FFFE000FFFE0
FFFE001FFFE0
FFFE001FFFE0
FFFF001FFFE0
FFFF001FBFE0
FFFF001FBFE0
FFBF003FBFE0
FFBF003FBFE0
FFBF803FBFE0
FFBF803F3FE0
FFBF807F3FE0
FF9F807F3FE0
FF9FC07F3FE0
FF9FC07E3FE0
FF9FC07E3FE0
FF8FC0FE3FE0
FF8FC0FE3FE0
FF8FE0FC3FE0
FF8FE0FC3FE0
FF87E1FC3FE0
FF87E1FC3FE0
FF87F1FC3FE0
FF87F1F83FE0
FF87F1F83FE0
FF83F3F83FE0
FF83FBF83FE0
FF83FBF03FE0
FF83FBF03FE0
FF81FFF03FE0
FF81FFF03FE0
FF81FFF03FE0
FF81FFE03FE0
FF80FFE03FE0
FF80FFE03FE0
FF80FFE03FE0
FF80FFC03FE0
FF80FFC03FE0
FF807FC03FE0
ENDCHAR
STARTCHAR N
ENCODING 78
SWIDTH 722 0
DWIDTH 43 0
BBX 36 44 4 0
BITMAP
FF80001FF0
FFC0001FF0
FFE0001FF0
FFE0001FF0
FFF0001FF0
FFF0001FF0
FFF8001FF0
FFFC001FF0
FFFC001FF0
FFFE001FF0
FFFE001FF0
FFFF001FF0
FFFF001FF0
FFFF801FF0
FFFFC01FF0
FFBFC01FF0
FF9FE01FF0
FF9FE01FF0
FF8FF01FF0
FF8FF81FF0
FF87F81FF0
FF83FC1FF0
FF83FC1FF0
FF81FE1FF0
FF81FE1FF0
FF80FF1FF0
FF80FF9FF0
FF807F9FF0
FF803FDFF0
FF803FDFF0
FF801FFFF0
FF801FFFF0
FF800FFFF0
FF8007FFF0
FF8007FFF0
FF8003FFF0
FF8003FFF0
FF8001FFF0
FF8001FFF0
FF8000FFF0
FF80007FF0
FF80007FF0
FF80003FF0
FF80003FF0
ENDCHAR
STARTCHAR O
ENCODING 79
SWIDTH 778 0
DWIDTH 47 0
BBX 43 45 2 -1
BITMAP
0001FFF00000
000FFFFE0000
003FFFFF0000
007FFFFFC000
00FFFFFFE000
01FFFFFFF000
03FFFFFFF800
07FFE0FFFC00
0FFF001FFE00
0FFE000FFE00
1FF80007FF00
1FF80003FF00
3FF00001FF80
3FE00000FF80
7FE00000FF80
7FC00000FFC0
7FC000007FC0
7FC000007FC0
7FC000007FC0
7FC000007FC0
FF8000007FC0
FF8000007FC0
FF8000007FE0
FF8000007FC0
FF8000007FC0
7FC000007FC0
7FC000007FC0
7FC000007FC0
7FC000007FC0
7FC00000FFC0
7FE00000FF80
3FE00001FF80
3FF00001FF80
1FF80003FF00
1FFC0007FF00
0FFE000FFE00
0FFF001FFE00
07FFE1FFFC00
03FFFFFFF800
01FFFFFFF000
00FFFFFFE000
007FFFFFC000
003FFFFF0000
000FFFFE0000
0001FFF00000
ENDCHAR
STARTCHAR P
ENCODING 80
SWIDTH 667 0
DWIDTH 40 0
BBX 33 44 5 0
BITMAP
FFFFFC0000
FFFFFFC000
FFFFFFF000
FFFFFFF800
FFFFFFFC00
FFFFFFFE00
FFFFFFFE00
FFFFFFFF00
FF8007FF00
FF8003FF80
FF8001FF80
FF8000FF80
FF8000FF80
FF8000FF80
FF8000FF80
FF8000FF80
FF8000FF80
FF8001FF80
FF8001FF00
FF8003FF00
FF800FFF00
FFFFFFFE00
FFFFFFFE00
FFFFFFFC00
FFFFFFF800
FFFFFFF000
FFFFFFE000
FFFFFF8000
FF80000000
FF80000000
FF80000000
FF80000000
FF80000000
FF80000000
FF80000000
FF80000000
FF80000000
FF80000000
FF80000000
FF80000000
FF80000000
FF80000000
FF80000000
FF80000000
ENDCHAR
STARTCHAR Q
ENCODING 81
SWIDTH 778 0
DWIDTH 47 0
BBX 42 47 3 -3
BITMAP
0003FFE00000
001FFFFC0000
007FFFFF0000
00FFFFFF8000
01FFFFFFC000
03FFFFFFE000
07FFFFFFF000
0FFFC1FFF800
1FFE003FFC00
1FFC001FFC00
3FF80007FE00
3FF00007FF00
7FE00003FF00
7FE00001FF00
7FC00001FF80
FFC00000FF80
FF800000FF80
FF800000FF80
FF800000FF80
FF800000FFC0
FF8000007FC0
FF8000007FC0
FF8000007FC0
FF8000007FC0
FF800000FFC0
FF800000FF80
FF800000FF80
FF800000FF80
FF800060FF80
FFC000F0FF80
7FC001F9FF80
7FE003FDFF00
7FE003FFFF00
3FF001FFFE00
3FF800FFFE00
1FFC007FFC00
1FFE003FFC00
0FFFE3FFF800
07FFFFFFFC00
03FFFFFFFE00
01FFFFFFFF00
00FFFFFFFF80
003FFFFFFFC0
000FFFFC7F80
0003FFE03F00
000000001E00
000000000C00
ENDCHAR
STARTCHAR R
ENCODING 82
SWIDTH 722 0
DWIDTH 43 0
BBX 36 44 5 0
BITMAP
FFFFFFC000
FFFFFFF800
FFFFFFFE00
FFFFFFFF00
FFFFFFFF80
FFFFFFFF80
FFFFFFFFC0
FFFFFFFFC0
FF8000FFE0
FF80007FE0
FF80003FE0
FF80003FE0
FF80003FE0
FF80003FE0
FF80003FE0
FF80003FE0
FF80007FC0
FF80007FC0
FF8000FF80
FFFFFFFF80
FFFFFFFF00
FFFFFFFC00
FFFFFFF800
FFFFFFF800
FFFFFFFE00
FFFFFFFF00
FFFFFFFF00
FF8001FF80
FF8000FF80
FF8000FF80
FF80007F80
FF80007F80
FF80007F80
FF80007FC0
FF80007FC0
FF80007FC0
FF80007FC0
FF80007FC0
FF80007FC0
FF80007FC0
FF80007FC0
FF80007FC0
FF80007FF0
FF80003FF0
ENDCHAR
STARTCHAR S
ENCODING 83
SWIDTH 667 0
DWIDTH 40 0
BBX 36 45 2 -1
BITMAP
003FFF8000
01FFFFE000
03FFFFF800
0FFFFFFC00
0FFFFFFE00
1FFFFFFF00
3FFFFFFF80
3FF807FF80
7FE001FFC0
7FC000FFC0
7FC0007FC0
7F80003FC0
7F80003FC0
7F80003FC0
7FC0000000
7FE0000000
7FF0000000
7FFF000000
3FFFF80000
3FFFFFC000
1FFFFFF800
0FFFFFFE00
03FFFFFF00
00FFFFFF80
000FFFFFC0
00007FFFE0
000007FFE0
000000FFF0
0000003FF0
0000001FF0
0000001FF0
FF80001FF0
FF80001FF0
FF80001FF0
FFC0001FF0
7FE0003FE0
7FF0007FE0
3FFC01FFE0
3FFFFFFFC0
1FFFFFFF80
0FFFFFFF80
07FFFFFE00
03FFFFFC00
00FFFFF000
001FFF8000
ENDCHAR
STARTCHAR T
ENCODING 84
SWIDTH 611 0
DWIDTH 37 0
BBX 35 44 1 0
BITMAP
FFFFFFFFE0
FFFFFFFFE0
FFFFFFFFE0
FFFFFFFFE0
FFFFFFFFE0
FFFFFFFFE0
FFFFFFFFE0
FFFFFFFFE0
0007FC0000
0007FC0000
0007FC0000
0007FC0000
0007FC0000
0007FC0000
0007FC0000
0007FC0000
0007FC0000
0007FC0000
0007FC0000
0007FC0000
0007FC0000
0007FC0000
0007FC0000
0007FC0000
0007FC0000
0007FC0000
0007FC0000
0007FC0000
0007FC0000
0007FC0000
0007FC0000
0007FC0000
0007FC0000
0007FC0000
0007FC0000
0007FC0000
0007FC0000
0007FC0000
0007FC0000
0007FC0000
0007FC0000
0007FC0000
0007FC0000
0007FC0000
ENDCHAR
STARTCHAR U
ENCODING 85
SWIDTH 722 0
DWIDTH 43 0
BBX 34 45 5 -1
BITMAP
FF80007FC0
FF80007FC0
FF80007FC0
FF80007FC0
FF80007FC0
FF80007FC0
FF80007FC0
FF80007FC0
FF80007FC0
FF80007FC0
FF80007FC0
FF80007FC0
FF80007FC0
FF80007FC0
FF80007FC0
FF80007FC0
FF80007FC0
FF80007FC0
FF80007FC0
FF80007FC0
FF80007FC0
FF80007FC0
FF80007FC0
FF80007FC0
FF80007FC0
FF80007FC0
FF80007FC0
FF80007FC0
FF80007FC0
FF80007FC0
FF80007FC0
FF80007FC0
FF80007FC0
FF80007FC0
FFC000FFC0
FFC001FF80
7FF003FF80
7FFE3FFF80
3FFFFFFF00
3FFFFFFE00
1FFFFFFC00
0FFFFFF800
03FFFFF000
00FFFFC000
003FFE0000
ENDCHAR
STARTCHAR V
ENCODING 86
SWIDTH 667 0
DWIDTH 40 0
BBX 37 44 2 0
BITMAP
FF80000FF8
FF80001FF0
FF80001FF0
7F80001FF0
7FC0001FE0
7FC0003FE0
3FC0003FE0
3FE0003FC0
3FE0007FC0
1FE0007FC0
1FF0007F80
1FF0007F80
0FF000FF80
0FF000FF00
0FF800FF00
07F801FF00
07F801FE00
07FC01FE00
03FC03FE00
03FC03FC00
03FC03FC00
01FE03FC00
01FE07F800
01FE07F800
00FF07F800
00FF0FF000
00FF0FF000
007F8FE000
007F8FE000
007F9FE000
003F9FC000
003FDFC000
003FFFC000
001FFF8000
001FFF8000
001FFF8000
000FFF0000
000FFF0000
000FFF0000
0007FE0000
0007FE0000
0007FE0000
0003FC0000
0003FC0000
ENDCHAR
STARTCHAR W
ENCODING 87
SWIDTH 944 0
DWIDTH 57 0
BBX 55 44 1 0
BITMAP
FF8001FF0007FE
FFC001FF0007FE
FFC003FF0007FC
7FC003FF0007FC
7FC003FF8007FC
7FC003FF800FF8
3FE003FF800FF8
3FE007FF800FF8
3FE007FFC00FF8
3FE007FFC00FF0
1FE007EFC01FF0
1FF007EFC01FF0
1FF00FEFC01FF0
1FF00FEFE01FE0
0FF00FCFE01FE0
0FF00FC7E03FE0
0FF80FC7E03FC0
07F81FC7E03FC0
07F81FC7F03FC0
07F81F87F03FC0
07FC1F83F07F80
03FC3F83F07F80
03FC3F83F87F80
03FC3F83F87F00
01FC3F01F87F00
01FE3F01F8FF00
01FE7F01F8FF00
01FE7F01FCFE00
00FE7E01FCFE00
00FE7E00FCFE00
00FF7E00FDFE00
007FFE00FFFC00
007FFE00FFFC00
007FFC00FFFC00
007FFC007FF800
003FFC007FF800
003FFC007FF800
003FFC007FF800
001FF8003FF000
001FF8003FF000
001FF8003FF000
001FF8003FE000
000FF8003FE000
000FF0001FE000
ENDCHAR
STARTCHAR X
ENCODING 88
SWIDTH 667 0
DWIDTH 40 0
BBX 37 44 2 0
BITMAP
FFE0003FF0
7FE0007FF0
7FF0007FE0
3FF000FFE0
3FF800FFC0
1FF801FF80
0FFC01FF80
0FFC03FF00
07FE03FE00
07FE07FE00
03FF0FFC00
01FF0FFC00
01FF9FF800
00FFDFF000
007FFFF000
007FFFE000
003FFFC000
003FFFC000
001FFF8000
000FFF8000
000FFF0000
0007FE0000
0007FF0000
000FFF0000
000FFF8000
001FFFC000
003FFFC000
003FFFE000
007FFFE000
00FFFFF000
00FF9FF800
01FF8FF800
01FF0FFC00
03FF07FE00
07FE07FE00
07FC03FF00
0FFC03FF00
1FF801FF80
1FF801FFC0
3FF000FFC0
7FF0007FE0
7FE0007FF0
FFE0003FF0
FFC0003FF8
ENDCHAR
STARTCHAR Y
ENCODING 89
SWIDTH 667 0
DWIDTH 40 0
BBX 37 44 2 0
BITMAP
FFC0001FF8
FFC0003FF0
7FE0003FF0
7FE0003FE0
3FF0007FE0
3FF0007FC0
1FF800FFC0
1FF800FF80
0FF801FF80
0FFC01FF00
07FC01FF00
03FE03FE00
03FE03FE00
01FF07FC00
01FF07FC00
00FF8FF800
00FF8FF800
007FDFF000
007FDFF000
003FFFE000
003FFFE000
001FFFC000
001FFFC000
000FFF8000
000FFF8000
0007FF0000
0007FF0000
0003FE0000
0003FE0000
0003FE0000
0003FE0000
0003FE0000
0003FE0000
0003FE0000
0003FE0000
0003FE0000
0003FE0000
0003FE0000
0003FE0000
0003FE0000
0003FE0000
0003FE0000
0003FE0000
0003FE0000
ENDCHAR
STARTCHAR Z
ENCODING 90
SWIDTH 611 0
DWIDTH 37 0
BBX 33 44 2 0
BITMAP
FFFFFFFF80
FFFFFFFF80
FFFFFFFF80
FFFFFFFF80
FFFFFFFF80
FFFFFFFF80
FFFFFFFF80
FFFFFFFF80
000003FF00
000007FE00
00000FFE00
00001FFC00
00003FF800
00003FF000
00007FE000
0000FFE000
0001FFC000
0001FF8000
0003FF0000
0007FF0000
000FFE0000
001FFC0000
001FF80000
003FF00000
007FF00000
00FFE00000
00FFC00000
01FF800000
03FF800000
07FF000000
0FFE000000
0FFC000000
1FF8000000
3FF8000000
7FF0000000
7FE0000000
FFC0000000
FFFFFFFF80
FFFFFFFF80
FFFFFFFF80
FFFFFFFF80
FFFFFFFF80
FFFFFFFF80
FFFFFFFF80
ENDCHAR
STARTCHAR bracketleft
ENCODING 91
SWIDTH 333 0
DWIDTH 20 0
BBX 14 56 4 -12
BITMAP
FFFC
FFFC
FFFC
FFFC
FFFC
FFFC
FF00
FF00
FF00
FF00
FF00
FF00
FF00
FF00
FF00
FF00
FF00
FF00
FF00
FF00
FF00
FF00
FF00
FF00
FF00
FF00
FF00
FF00
FF00
FF00
FF00
FF00
FF00
FF00
FF00
FF00
FF00
FF00
FF00
FF00
FF00
FF00
FF00
FF00
FF00
FF00
FF00
FF00
FF00
FF00
FFFC
FFFC
FFFC
FFFC
FFFC
FFFC
ENDCHAR
STARTCHAR backslash
ENCODING 92
SWIDTH 278 0
DWIDTH 17 0
BBX 18 44 -1 -1
BITMAP
F00000
780000
780000
780000
3C0000
3C0000
3C0000
1E0000
1E0000
1E0000
0F0000
0F0000
0F0000
078000
078000
078000
03C000
03C000
03C000
03E000
01E000
01E000
01E000
00F000
00F000
00F000
007800
007800
007800
003C00
003C00
003C00
001E00
001E00
001E00
000F00
000F00
000F00
000780
000780
000780
0003C0
0003C0
0003C0
ENDCHAR
STARTCHAR bracketright
ENCODING 93
SWIDTH 333 0
DWIDTH 20 0
BBX 15 56 1 -12
BITMAP
FFFE
FFFE
FFFE
FFFE
FFFE
FFFE
01FE
01FE
01FE
01FE
01FE
01FE
01FE
01FE
01FE
01FE
01FE
01FE
01FE
01FE
01FE
01FE
01FE
01FE
01FE
01FE
01FE
01FE
01FE
01FE
01FE
01FE
01FE
01FE
01FE
01FE
01FE
01FE
01FE
01FE
01FE
01FE
01FE
01FE
01FE
01FE
01FE
01FE
01FE
01FE
FFFE
FFFE
FFFE
FFFE
FFFE
FFFE
ENDCHAR
STARTCHAR asciicircum
ENCODING 94
SWIDTH 584 0
DWIDTH 35 0
BBX 27 26 4 16
BITMAP
007F8000
007FC000
007FC000
00FFC000
00FFE000
00FFE000
01FFF000
01FFF000
03FBF000
03FBF800
03F3F800
07F1FC00
07E1FC00
0FE0FC00
0FE0FE00
0FC0FE00
1FC07F00
1FC07F00
3F803F00
3F803F80
3F003F80
7F001FC0
7F001FC0
7E000FC0
FE000FE0
FE000FE0
ENDCHAR
STARTCHAR underscore
ENCODING 95
SWIDTH 556 0
DWIDTH 33 0
BBX 36 5 -1 -12
BITMAP
FFFFFFFFF0
FFFFFFFFF0
FFFFFFFFF0
FFFFFFFFF0
FFFFFFFFF0
ENDCHAR
STARTCHAR grave
ENCODING 96
SWIDTH 333 0
DWIDTH 20 0
BBX 11 9 2 36
BITMAP
FE00
7E00
7F00
3F00
1F80
0F80
07C0
03C0
03E0
ENDCHAR
STARTCHAR a
ENCODING 97
SWIDTH 556 0
DWIDTH 33 0
BBX 29 34 2 -1
BITMAP
007FE000
03FFFC00
07FFFF00
1FFFFF80
1FFFFFC0
3FFFFFE0
7FFFFFE0
7FE03FE0
7F801FE0
7F801FF0
FF801FF0
00001FF0
00003FF0
0001FFF0
007FFFF0
07FFFFF0
0FFFFFF0
3FFFFFF0
7FFF9FF0
7FF01FF0
FFC01FF0
FF801FF0
FF001FF0
FF001FF0
FF003FF0
FF003FF0
FF807FF0
FFF3FFF0
FFFFFFF0
7FFFFFF0
7FFFFFF0
3FFF9FF8
1FFF0FF8
07FC0000
ENDCHAR
STARTCHAR b
ENCODING 98
SWIDTH 611 0
DWIDTH 37 0
BBX 30 45 4 -1
BITMAP
FF000000
FF000000
FF000000
FF000000
FF000000
FF000000
FF000000
FF000000
FF000000
FF000000
FF000000
FF03F000
FF1FFE00
FF3FFF00
FF7FFF80
FFFFFFC0
FFFFFFE0
FFFFFFF0
FFF87FF0
FFE01FF8
FFC00FF8
FFC00FFC
FF8007FC
FF8007FC
FF0003FC
FF0003FC
FF0003FC
FF0003FC
FF0003FC
FF0003FC
FF0003FC
FF0003FC
FF0003FC
FF8007FC
FF8007FC
FFC00FF8
FFE01FF8
FFF03FF0
FFFFFFF0
FFFFFFE0
FFFFFFE0
FFFFFFC0
FF7FFF80
FF3FFE00
000FF800
ENDCHAR
STARTCHAR c
ENCODING 99
SWIDTH 556 0
DWIDTH 33 0
BBX 29 34 2 -1
BITMAP
001FE000
00FFFC00
03FFFF00
07FFFF80
0FFFFFC0
1FFFFFE0
1FFFFFF0
3FF03FF0
3FE01FF0
7FC00FF8
7FC007F8
7F8007F8
FF8007F8
FF800000
FF800000
FF000000
FF000000
FF000000
FF000000
FF800000
FF800000
FF800000
FF8007F8
7F8007F8
7FC00FF8
7FE00FF8
3FF01FF0
3FFCFFF0
1FFFFFE0
0FFFFFC0
07FFFF80
03FFFF00
01FFFE00
003FF800
ENDCHAR
STARTCHAR d
ENCODING 100
SWIDTH 611 0
DWIDTH 37 0
BBX 31 45 2 -1
BITMAP
000003FE
000003FE
000003FE
000003FE
000003FE
000003FE
000003FE
000003FE
000003FE
000003FE
000003FE
003F83FE
00FFE3FE
03FFF3FE
07FFFBFE
0FFFFFFE
1FFFFFFE
1FFFFFFE
3FF87FFE
7FE01FFE
7FC00FFE
7FC007FE
FF8007FE
FF8003FE
FF8003FE
FF0003FE
FF0003FE
FF0003FE
FF0003FE
FF0003FE
FF0003FE
FF0003FE
FF8003FE
FF8007FE
7F8007FE
7FC00FFE
7FE00FFE
3FF03FFE
3FFFFFFE
1FFFFFFE
0FFFFFFE
0FFFFFFE
07FFFBFE
01FFF3FE
007FC000
ENDCHAR
STARTCHAR e
ENCODING 101
SWIDTH 556 0
DWIDTH 33 0
BBX 30 34 1 -1
BITMAP
001FE000
00FFFC00
01FFFF00
03FFFF80
07FFFFC0
0FFFFFE0
1FFFFFF0
3FF01FF0
3FE00FF8
3FC007F8
7FC007F8
7F8007FC
7F8003FC
7F8003FC
FFFFFFFC
FFFFFFFC
FFFFFFFC
FFFFFFFC
FFFFFFFC
FF800000
FF800000
7F800000
7F800000
7F800000
7FC003FC
3FC007FC
3FE00FF8
1FF83FF8
1FFFFFF0
0FFFFFE0
07FFFFC0
03FFFF80
01FFFE00
003FF800
ENDCHAR
STARTCHAR f
ENCODING 102
SWIDTH 333 0
DWIDTH 20 0
BBX 18 44 1 0
BITMAP
001F80
01FF80
03FF80
07FF80
07FF80
07FF80
0FFF80
0FF800
0FF800
0FF800
0FF800
0FF800
FFFFC0
FFFFC0
FFFFC0
FFFFC0
FFFFC0
FFFFC0
0FF800
0FF800
0FF800
0FF800
0FF800
0FF800
0FF800
0FF800
0FF800
0FF800
0FF800
0FF800
0FF800
0FF800
0FF800
0FF800
0FF800
0FF800
0FF800
0FF800
0FF800
0FF800
0FF800
0FF800
0FF800
0FF800
ENDCHAR
STARTCHAR g
ENCODING 103
SWIDTH 611 0
DWIDTH 37 0
BBX 30 46 2 -13
BITMAP
003F0000
00FFE3FC
03FFF3FC
07FFFBFC
0FFFFFFC
0FFFFFFC
1FFFFFFC
3FF87FFC
3FF01FFC
7FE00FFC
7FC007FC
7FC007FC
7F8003FC
FF8003FC
FF8003FC
FF8003FC
FF0001FC
FF0001FC
FF0001FC
FF8003FC
FF8003FC
FF8003FC
FF8003FC
7FC007FC
7FC007FC
7FE00FFC
3FF03FFC
3FFFFFFC
1FFFFFFC
1FFFFFFC
0FFFFFFC
07FFFBFC
01FFF3FC
00FFC3FC
000003FC
000003FC
000003FC
7FC003FC
7FC007FC
7FE00FF8
3FFC7FF8
3FFFFFF0
1FFFFFE0
0FFFFFC0
03FFFF00
003FF800
ENDCHAR
STARTCHAR h
ENCODING 104
SWIDTH 611 0
DWIDTH 37 0
BBX 28 44 4 0
BITMAP
FF000000
FF000000
FF000000
FF000000
FF000000
FF000000
FF000000
FF000000
FF000000
FF000000
FF000000
FF01F800
FF0FFF00
FF1FFF80
FF3FFFC0
FF7FFFE0
FFFFFFE0
FFFFFFF0
FFF87FF0
FFE01FF0
FFC01FF0
FF800FF0
FF800FF0
FF000FF0
FF000FF0
FF000FF0
FF000FF0
FF000FF0
FF000FF0
FF000FF0
FF000FF0
FF000FF0
FF000FF0
FF000FF0
FF000FF0
FF000FF0
FF000FF0
FF000FF0
FF000FF0
FF000FF0
FF000FF0
FF000FF0
FF000FF0
FF000FF0
ENDCHAR
STARTCHAR i
ENCODING 105
SWIDTH 278 0
DWIDTH 17 0
BBX 8 44 4 0
BITMAP
FF
FF
FF
FF
FF
FF
FF
FF
00
00
00
00
FF
FF
FF
FF
FF
FF
FF
FF
FF
FF
FF
FF
FF
FF
FF
FF
FF
FF
FF
FF
FF
FF
FF
FF
FF
FF
FF
FF
FF
FF
FF
FF
ENDCHAR
STARTCHAR j
ENCODING 106
SWIDTH 278 0
DWIDTH 17 0
BBX 13 57 0 -13
BITMAP
0FF8
0FF8
0FF8
0FF8
0FF8
0FF8
0FF8
0FF8
0000
0000
0000
0000
0FF8
0FF8
0FF8
0FF8
0FF8
0FF8
0FF8
0FF8
0FF8
0FF8
0FF8
0FF8
0FF8
0FF8
0FF8
0FF8
0FF8
0FF8
0FF8
0FF8
0FF8
0FF8
0FF8
0FF8
0FF8
0FF8
0FF8
0FF8
0FF8
0FF8
0FF8
0FF8
0FF8
0FF8
0FF8
0FF8
0FF8
0FF8
FFF8
FFF0
FFF0
FFF0
FFF0
FFE0
FF80
ENDCHAR
STARTCHAR k
ENCODING 107
SWIDTH 556 0
DWIDTH 33 0
BBX 29 44 4 0
BITMAP
FF000000
FF000000
FF000000
FF000000
FF000000
FF000000
FF000000
FF000000
FF000000
FF000000
FF000000
FF000000
FF003FF0
FF007FC0
FF00FF80
FF01FF80
FF03FF00
FF03FE00
FF07FC00
FF0FF800
FF1FF000
FF3FE000
FF7FC000
FF7F8000
FFFF8000
FFFFC000
FFFFE000
FFFFE000
FFFFF000
FFFFF000
FFEFF800
FFCFFC00
FF87FC00
FF07FE00
FF03FE00
FF03FF00
FF01FF00
FF01FF80
FF00FFC0
FF007FC0
FF007FE0
FF003FE0
FF003FF0
FF001FF8
ENDCHAR
STARTCHAR l
ENCODING 108
SWIDTH 278 0
DWIDTH 17 0
BBX 8 44 4 0
BITMAP
FF
FF
FF
FF
FF
FF
FF
FF
FF
FF
FF
FF
FF
FF
FF
FF
FF
FF
FF
FF
FF
FF
FF
FF
FF
FF
FF
FF
FF
FF
FF
FF
FF
FF
FF
FF
FF
FF
FF
FF
FF
FF
FF
FF
ENDCHAR
STARTCHAR m
ENCODING 109
SWIDTH 889 0
DWIDTH 53 0
BBX 45 33 4 0
BITMAP
0003F000FE00
FF1FFC07FF80
FF3FFF0FFFC0
FF7FFF9FFFE0
FFFFFFBFFFF0
FFFFFFFFFFF8
FFFFFFFFFFF8
FFF0FFFE3FF8
FFC07FF80FF8
FF803FF007F8
FF803FE007F8
FF003FE007F8
FF003FE007F8
FF003FE007F8
FF003FE007F8
FF003FE007F8
FF003FE007F8
FF003FE007F8
FF003FE007F8
FF003FE007F8
FF003FE007F8
FF003FE007F8
FF003FE007F8
FF003FE007F8
FF003FE007F8
FF003FE007F8
FF003FE007F8
FF003FE007F8
FF003FE007F8
FF003FE007F8
FF003FE007F8
FF003FE007F8
FF003FE007F8
ENDCHAR
STARTCHAR n
ENCODING 110
SWIDTH 611 0
DWIDTH 37 0
BBX 29 33 4 0
BITMAP
0003F800
FF0FFF00
FF1FFF80
FF3FFFC0
FF7FFFE0
FFFFFFF0
FFFFFFF0
FFF87FF0
FFE01FF8
FFC00FF8
FF800FF8
FF000FF8
FF000FF8
FF000FF8
FF000FF8
FF000FF8
FF000FF8
FF000FF8
FF000FF8
FF000FF8
FF000FF8
FF000FF8
FF000FF8
FF000FF8
FF000FF8
FF000FF8
FF000FF8
FF000FF8
FF000FF8
FF000FF8
FF000FF8
FF000FF8
FF000FF8
ENDCHAR
STARTCHAR o
ENCODING 111
SWIDTH 611 0
DWIDTH 37 0
BBX 32 34 2 -1
BITMAP
000FF000
007FFE00
01FFFF80
03FFFFE0
0FFFFFF0
0FFFFFF8
1FFFFFF8
3FF81FFC
3FF007FC
7FE007FE
7FC003FE
7FC001FE
7F8001FF
FF8001FF
FF8001FF
FF8000FF
FF0000FF
FF0000FF
FF8000FF
FF8000FF
FF8001FF
FF8001FF
7F8001FF
7FC003FE
7FC003FE
3FE007FE
3FF00FFC
1FFE7FFC
1FFFFFF8
0FFFFFF0
07FFFFE0
03FFFFC0
00FFFF00
003FFC00
ENDCHAR
STARTCHAR p
ENCODING 112
SWIDTH 611 0
DWIDTH 37 0
BBX 31 46 3 -13
BITMAP
0001F800
FF8FFF00
FF9FFF80
FFBFFFC0
FFFFFFE0
FFFFFFF0
FFFFFFF8
FFFC3FF8
FFF00FFC
FFE007FC
FFC007FC
FFC003FE
FFC003FE
FF8001FE
FF8001FE
FF8001FE
FF8001FE
FF8001FE
FF8001FE
FF8001FE
FF8001FE
FF8003FE
FFC003FE
FFC003FE
FFE007FC
FFF00FFC
FFF81FF8
FFFFFFF8
FFFFFFF0
FFFFFFF0
FFBFFFE0
FF9FFFC0
FF8FFF00
FF87FE00
FF800000
FF800000
FF800000
FF800000
FF800000
FF800000
FF800000
FF800000
FF800000
FF800000
FF800000
FF800000
ENDCHAR
STARTCHAR q
ENCODING 113
SWIDTH 611 0
DWIDTH 37 0
BBX 31 46 2 -13
BITMAP
003F0000
00FFE3FE
03FFF3FE
07FFFBFE
0FFFFFFE
1FFFFFFE
3FFFFFFE
3FF87FFE
7FE01FFE
7FC00FFE
7FC007FE
FF8007FE
FF8007FE
FF0003FE
FF0003FE
FF0003FE
FF0003FE
FF0003FE
FF0003FE
FF0003FE
FF0003FE
FF8003FE
FF8007FE
FF8007FE
7FC00FFE
7FE00FFE
7FF03FFE
3FFFFFFE
1FFFFFFE
1FFFFFFE
0FFFFBFE
07FFFBFE
03FFE3FE
00FFC3FE
000003FE
000003FE
000003FE
000003FE
000003FE
000003FE
000003FE
000003FE
000003FE
000003FE
000003FE
000003FE
ENDCHAR
STARTCHAR r
ENCODING 114
SWIDTH 389 0
DWIDTH 23 0
BBX 18 33 4 0
BITMAP
0003C0
FF0FC0
FF1FC0
FF3FC0
FF7FC0
FF7FC0
FFFFC0
FFFFC0
FFFE40
FFE000
FFC000
FF8000
FF8000
FF0000
FF0000
FF0000
FF0000
FF0000
FF0000
FF0000
FF0000
FF0000
FF0000
FF0000
FF0000
FF0000
FF0000
FF0000
FF0000
FF0000
FF0000
FF0000
FF0000
ENDCHAR
STARTCHAR s
ENCODING 115
SWIDTH 556 0
DWIDTH 33 0
BBX 29 34 2 -1
BITMAP
003FE000
01FFFC00
07FFFF00
0FFFFF80
1FFFFFC0
3FFFFFE0
3FFFFFE0
7FE03FF0
7FC01FF0
7F800FF0
7F800FF0
7FC00000
7FF80000
7FFF8000
3FFFF000
3FFFFF00
1FFFFFC0
0FFFFFE0
01FFFFF0
003FFFF0
0007FFF8
0000FFF8
00001FF8
000007F8
FF0007F8
FF8007F8
FF800FF8
FFF07FF0
7FFFFFF0
3FFFFFE0
3FFFFFC0
0FFFFF80
07FFFF00
00FFFC00
ENDCHAR
STARTCHAR t
ENCODING 116
SWIDTH 333 0
DWIDTH 20 0
BBX 17 41 1 -1
BITMAP
0FF000
0FF000
0FF000
0FF000
0FF000
0FF000
0FF000
0FF000
FFFF80
FFFF80
FFFF80
FFFF80
FFFF80
FFFF80
0FF000
0FF000
0FF000
0FF000
0FF000
0FF000
0FF000
0FF000
0FF000
0FF000
0FF000
0FF000
0FF000
0FF000
0FF000
0FF000
0FF000
0FF000
0FF000
0FF800
0FF800
0FFF80
0FFF80
07FF80
07FF80
03FF80
00FF80
ENDCHAR
STARTCHAR u
ENCODING 117
SWIDTH 611 0
DWIDTH 37 0
BBX 29 33 3 -1
BITMAP
FF8007F8
FF8007F8
FF8007F8
FF8007F8
FF8007F8
FF8007F8
FF8007F8
FF8007F8
FF8007F8
FF8007F8
FF8007F8
FF8007F8
FF8007F8
FF8007F8
FF8007F8
FF8007F8
FF8007F8
FF8007F8
FF8007F8
FF8007F8
FF8007F8
FF8007F8
FF8007F8
FF800FF8
7FC01FF8
7FE03FF8
7FFFFFF8
7FFFFFF8
3FFFFFF8
3FFFF7F8
1FFFE7F8
07FFC7F8
03FF0000
ENDCHAR
STARTCHAR v
ENCODING 118
SWIDTH 556 0
DWIDTH 33 0
BBX 31 32 1 0
BITMAP
FF8003FE
FF8003FE
7FC007FC
7FC007FC
3FC007F8
3FC007F8
3FE00FF8
1FE00FF0
1FE00FF0
1FF00FF0
0FF01FE0
0FF01FE0
0FF81FE0
07F83FC0
07F83FC0
07F83FC0
03FC3F80
03FC7F80
03FC7F80
01FE7F00
01FE7F00
01FEFF00
00FFFE00
00FFFE00
007FFE00
007FFC00
007FFC00
003FFC00
003FF800
003FF800
001FF800
001FF000
ENDCHAR
STARTCHAR w
ENCODING 119
SWIDTH 778 0
DWIDTH 47 0
BBX 45 32 1 0
BITMAP
FF003FE00FF8
FF003FE00FF0
FF807FE00FF0
FF807FE01FF0
7F807FF01FF0
7F807FF01FE0
7FC07FF01FE0
7FC0FFF01FE0
3FC0FFF03FC0
3FC0FFF83FC0
3FC0FFF83FC0
1FE0FDF83FC0
1FE1F9F87F80
1FE1F9F87F80
1FE1F9FC7F80
0FF1F8FC7F00
0FF3F8FC7F00
0FF3F0FCFF00
07F3F0FEFF00
07FBF0FEFE00
07FBF07EFE00
07FFE07EFE00
03FFE07FFC00
03FFE07FFC00
03FFE07FFC00
01FFE03FFC00
01FFC03FF800
01FFC03FF800
01FFC03FF800
00FFC01FF000
00FF801FF000
00FF801FF000
ENDCHAR
STARTCHAR x
ENCODING 120
SWIDTH 556 0
DWIDTH 33 0
BBX 31 32 1 0
BITMAP
7FE00FFC
7FE00FFC
3FF01FF8
1FF01FF0
1FF83FF0
0FF83FE0
07FC7FC0
07FE7FC0
03FEFF80
01FFFF00
01FFFF00
00FFFE00
007FFC00
007FFC00
003FF800
001FF000
003FF800
003FFC00
007FFC00
00FFFE00
00FFFF00
01FFFF00
03FEFF80
03FEFF80
07FC7FC0
0FFC7FE0
0FF83FE0
1FF81FF0
3FF01FF8
3FE00FF8
7FE00FFC
FFC007FE
ENDCHAR
STARTCHAR y
ENCODING 121
SWIDTH 556 0
DWIDTH 33 0
BBX 31 45 1 -13
BITMAP
FF8003FE
FF8003FE
7FC003FC
7FC003FC
7FC007FC
3FE007F8
3FE007F8
3FE00FF8
1FE00FF0
1FF00FF0
1FF00FE0
0FF01FE0
0FF81FE0
0FF81FC0
07F83FC0
07FC3FC0
03FC3F80
03FC3F80
03FE7F80
01FE7F00
01FE7F00
01FEFF00
00FFFE00
00FFFE00
00FFFE00
007FFC00
007FFC00
007FFC00
003FF800
003FF800
001FF800
001FF000
001FF000
000FF000
000FE000
001FE000
001FC000
003FC000
007FC000
0FFF8000
0FFF8000
0FFF0000
0FFF0000
0FFC0000
0FF00000
ENDCHAR
STARTCHAR z
ENCODING 122
SWIDTH 500 0
DWIDTH 30 0
BBX 27 32 1 0
BITMAP
7FFFFFE0
7FFFFFE0
7FFFFFE0
7FFFFFE0
7FFFFFE0
7FFFFFE0
0000FFC0
0001FFC0
0003FF80
0003FF00
0007FE00
000FFC00
001FF800
003FF800
007FF000
007FE000
00FFC000
01FF8000
03FF0000
07FE0000
0FFE0000
1FFC0000
1FF80000
3FF00000
7FE00000
FFFFFFE0
FFFFFFE0
FFFFFFE0
FFFFFFE0
FFFFFFE0
FFFFFFE0
FFFFFFE0
ENDCHAR
STARTCHAR braceleft
ENCODING 123
SWIDTH 389 0
DWIDTH 23 0
BBX 17 56 2 -12
BITMAP
001F80
00FF80
01FF80
03FF80
03FF80
03FF80
07F800
07F000
07F000
07F000
07F000
07F000
07F000
07F000
07F000
07F000
07F000
07F000
07F000
07F000
07F000
07F000
07F000
07F000
0FF000
FFE000
FFC000
FF0000
FF8000
FFE000
FFE000
0FF000
07F000
07F000
07F000
07F000
07F000
07F000
07F000
07F000
07F000
07F000
07F000
07F000
07F000
07F000
07F000
07F000
07F000
07F800
07FF80
03FF80
03FF80
01FF80
00FF80
003F80
ENDCHAR
STARTCHAR bar
ENCODING 124
SWIDTH 280 0
DWIDTH 17 0
BBX 5 56 6 -12
BITMAP
F8
F8
F8
F8
F8
F8
F8
F8
F8
F8
F8
F8
F8
F8
F8
F8
F8
F8
F8
F8
F8
F8
F8
F8
F8
F8
F8
F8
F8
F8
F8
F8
F8
F8
F8
F8
F8
F8
F8
F8
F8
F8
F8
F8
F8
F8
F8
F8
F8
F8
F8
F8
F8
F8
F8
F8
ENDCHAR
STARTCHAR braceright
ENCODING 125
SWIDTH 389 0
DWIDTH 23 0
BBX 17 56 4 -12
BITMAP
FE0000
FF8000
FFC000
FFE000
FFE000
FFF000
0FF000
07F000
07F000
07F000
07F000
07F000
07F000
07F000
07F000
07F000
07F000
07F000
07F000
07F000
07F000
07F000
07F000
07F000
07F800
03FF00
03FF80
00FF80
003F80
01FF80
03FF80
03FC00
07F800
07F000
07F000
07F000
07F000
07F000
07F000
07F000
07F000
07F000
07F000
07F000
07F000
07F000
07F000
07F000
07F000
0FF000
FFF000
FFF000
FFE000
FFC000
FF8000
FF0000
ENDCHAR
STARTCHAR asciitilde
ENCODING 126
SWIDTH 584 0
DWIDTH 35 0
BBX 27 10 4 9
BITMAP
07C00000
1FF00000
3FF803E0
7FFE03E0
FFFF03E0
F83FCFC0
F81FFFC0
F007FFC0
F003FF80
0001FF00
ENDCHAR
STARTCHAR degree
ENCODING 176
SWIDTH 606 0
DWIDTH 36 0
BBX 18 18 9 23
BITMAP
03F800
0FFC00
1FFF00
3FFF00
7C0F80
7807C0
F003C0
F003C0
F003C0
F003C0
F003C0
F003C0
7807C0
7C0F80
3FFF00
1FFE00
0FFC00
03F000
ENDCHAR
ENDFONT
